<svg width="82" height="82" viewBox="0 0 82 82" fill="none" xmlns="http://www.w3.org/2000/svg">
<g clip-path="url(#clip0_11267_2)">
<path d="M41.3715 0.407043C19.0808 0.407043 0.948334 18.5413 0.948334 40.8302C0.948334 63.1192 19.0808 81.2534 41.3715 81.2534C63.6622 81.2534 81.7947 63.1192 81.7947 40.8302C81.7947 18.5413 63.6622 0.407043 41.3715 0.407043ZM41.3715 77.8849C20.9395 77.8849 4.31688 61.2623 4.31688 40.8302C4.31688 20.3982 20.9395 3.77559 41.3715 3.77559C61.8036 3.77559 78.4262 20.3982 78.4262 40.8302C78.4262 61.2623 61.8036 77.8849 41.3715 77.8849Z" fill="white"/>
<path d="M54.1758 39.4271L30.5956 24.2684C30.0791 23.9313 29.4113 23.9132 28.8784 24.2059C28.3355 24.502 28 25.0679 28 25.6847V56.0021C28 56.6188 28.3355 57.1848 28.8784 57.4808C29.1284 57.6174 29.408 57.6864 29.6844 57.6864C30.0002 57.6864 30.3193 57.5975 30.5956 57.4183L54.1758 42.2596C54.6561 41.9504 54.9488 41.4158 54.9488 40.8434C54.9488 40.271 54.6561 39.7365 54.1758 39.4271ZM31.3685 52.9163V28.7704L50.1492 40.8434L31.3685 52.9163Z" fill="white"/>
</g>
<defs>
<clipPath id="clip0_11267_2">
<rect width="80.8464" height="80.8464" fill="white" transform="translate(0.948334 0.407043)"/>
</clipPath>
</defs>
</svg>
